<?xml version="1.0" encoding="UTF-8"?>
<svg width="249px" height="249px" viewBox="0 0 249 249" version="1.1" xmlns="http://www.w3.org/2000/svg" xmlns:xlink="http://www.w3.org/1999/xlink">
    <!-- Generator: Sketch 45.2 (43514) - http://www.bohemiancoding.com/sketch -->
    <title>Group</title>
    <desc>Created with Sketch.</desc>
    <defs></defs>
    <g id="Page-1" stroke="none" stroke-width="1" fill="none" fill-rule="evenodd">
        <g id="Group" transform="translate(1.000000, 1.000000)">
            <polyline id="Path-3" stroke="#48474B" stroke-width="9" points="24.5956239 185.900673 71.9583454 127.097234 74.530893 125.939746 77.235074 125.228419 80.1898649 125.228419 82.9421428 125.939746 84.8096921 127.097234 87.0544218 128.315476 89.1111942 129.936845 124.311746 174.784609 160.823569 129.936845 162.881607 128.315476 164.449184 127.097234 166.499628 125.939746 168.867764 125.228419 171.464993 125.228419 174.677355 125.939746 177.929587 127.097234 180.729329 129.936845 224.747422 185.900673"></polyline>
            <polygon id="Path-2" fill="#48474B" points="85.5127918 117.704601 82.4345946 115.842114 78.5760896 115.842114 74.4252066 116.773358 124.96485 51.5353856 174.883032 116.773358 171.017566 115.842114 167.338158 115.842114 164.074535 117.704601 124.96485 67.2149525"></polygon>
            <path d="M123.636719,247.273438 C55.3540445,247.273438 0,191.919393 0,123.636719 C0,55.3540445 55.3540445,0 123.636719,0 C191.919393,0 247.273437,55.3540445 247.273437,123.636719 C247.273437,191.919393 191.919393,247.273438 123.636719,247.273438 Z M124.158203,240.316406 C188.310607,240.316406 240.316406,188.310607 240.316406,124.158203 C240.316406,60.005799 188.310607,8 124.158203,8 C60.005799,8 8,60.005799 8,124.158203 C8,188.310607 60.005799,240.316406 124.158203,240.316406 Z" id="Combined-Shape" stroke="#48474B" fill="#48474B"></path>
        </g>
    </g>
</svg>