
<svg width="27px" height="24px" viewBox="0 0 27 24" version="1.1" xmlns="http://www.w3.org/2000/svg" xmlns:xlink="http://www.w3.org/1999/xlink">
    <defs></defs>
    <g id="Page-1" stroke="none" stroke-width="1" fill="none" fill-rule="evenodd">
        <g id="download2" fill-rule="nonzero" fill="#02B3E4">
            <path d="M13,21.25 L9.75,18 L9,18.75 L13.5,23.25 L18,18.75 L17.25,18 L14,21.25 L14,10 L13,10 L13,21.25 L13,21.25 Z M12,16 L5.00281647,16 C2.79793835,16 1,14.209139 1,12 C1,10.1046097 2.32460991,8.5117359 4.10100919,8.1021544 L4.10100919,8.1021544 C4.03467626,7.7448817 4,7.3764904 4,7 C4,3.68629134 6.68629134,1 10,1 C12.6154416,1 14.8400262,2.67345685 15.6614243,5.0080411 C16.435776,4.3778124 17.4237666,4 18.5,4 C20.8583427,4 22.7929639,5.814166 22.9844379,8.1230721 L22.9844379,8.1230721 C24.7144917,8.5630972 26,10.1320162 26,12 C26,14.2046438 24.207878,16 21.9971835,16 L15,16 L15,17 L22.0005601,17 C24.7616745,17 27,14.7558048 27,12 C27,9.9035809 25.7132907,8.1085075 23.8828633,7.3655101 L23.8828633,7.3655101 C23.3600217,4.8722494 21.1486546,3 18.5,3 C17.6371017,3 16.8206159,3.19871575 16.0938083,3.55288165 C14.8911816,1.43144875 12.6127573,0 10,0 C6.13400656,0 3,3.13400656 3,7 C3,7.1381509 3.00400207,7.275367 3.01189661,7.4115388 L3.01189661,7.4115388 C1.23965876,8.1816085 0,9.9491311 0,12 C0,14.7614237 2.23249418,17 4.99943992,17 L12,17 L12,16 L12,16 L12,16 Z" id="cloud-download"></path>
        </g>
    </g>
</svg>
